<svg width="318" height="237" viewBox="0 0 318 237" fill="none" xmlns="http://www.w3.org/2000/svg">
<g clip-path="url(#clip0_418_5152)">
<path d="M318 208.276H0V208.435H318V208.276Z" fill="#EBEBEB"/>
<path d="M150.738 179.908H27.9265C25.9231 179.908 24.2949 178.28 24.2949 176.276V3.63187C24.2949 1.6283 25.9231 0 27.9265 0H150.738C152.741 0 154.37 1.6283 154.37 3.63187V176.276C154.37 178.28 152.741 179.908 150.738 179.908ZM27.9265 0.159013C26.0121 0.159013 24.4539 1.71735 24.4539 3.63187V176.276C24.4539 178.19 26.0121 179.749 27.9265 179.749H150.738C152.652 179.749 154.211 178.19 154.211 176.276V3.63187C154.211 1.71735 152.652 0.159013 150.738 0.159013H27.9265Z" fill="#EBEBEB"/>
<path d="M288.305 179.908H165.494C163.49 179.908 161.862 178.28 161.862 176.276V3.63187C161.862 1.6283 163.49 0 165.494 0H288.305C290.309 0 291.937 1.6283 291.937 3.63187V176.276C291.937 178.28 290.309 179.908 288.305 179.908ZM165.494 0.159013C163.579 0.159013 162.021 1.71735 162.021 3.63187V176.276C162.021 178.19 163.579 179.749 165.494 179.749H288.305C290.22 179.749 291.778 178.19 291.778 176.276V3.63187C291.778 1.71735 290.22 0.159013 288.305 0.159013H165.494Z" fill="#EBEBEB"/>
<path d="M49.1503 214.331H32.6143V214.49H49.1503V214.331Z" fill="#EBEBEB"/>
<path d="M120.955 212.607H92.3154V212.766H120.955V212.607Z" fill="#EBEBEB"/>
<path d="M88.4486 220.24H49.7861V220.399H88.4486V220.24Z" fill="#EBEBEB"/>
<path d="M285.387 219.171H273.156V219.33H285.387V219.171Z" fill="#EBEBEB"/>
<path d="M267.489 219.171H232.324V219.33H267.489V219.171Z" fill="#EBEBEB"/>
<path d="M210.847 216.481H163.484V216.64H210.847V216.481Z" fill="#EBEBEB"/>
<path d="M121.368 102.08L113.322 208.276H190.902L198.947 102.08H121.368ZM170.155 177.141C169.5 185.804 161.944 192.826 153.282 192.826C144.62 192.826 138.133 185.804 138.788 177.141L141.618 139.805C142.273 131.142 149.829 124.113 158.491 124.113C162.822 124.113 166.613 125.869 169.233 128.712C171.853 131.549 173.31 135.473 172.985 139.805L170.155 177.141Z" fill="#E6E6E6"/>
<path d="M215.521 208.276H102.402L103.051 201.305H216.176L215.521 208.276Z" fill="#E6E6E6"/>
<path d="M258.992 168.84H269.009C269.581 168.84 270.027 168.37 269.995 167.797L269.957 167.085C269.925 166.512 269.435 166.042 268.863 166.042H258.846C258.273 166.042 257.828 166.512 257.86 167.085L257.898 167.797C257.93 168.37 258.42 168.84 258.992 168.84Z" fill="#E0E0E0"/>
<path d="M242.247 168.84H252.264C252.836 168.84 253.282 168.37 253.25 167.797L253.212 167.085C253.18 166.512 252.69 166.042 252.118 166.042H242.101C241.528 166.042 241.083 166.512 241.115 167.085L241.153 167.797C241.185 168.37 241.675 168.84 242.247 168.84Z" fill="#E0E0E0"/>
<path d="M276.807 168.058H42.9941C40.2974 168.058 38.0015 165.87 37.8679 163.173L30.8274 22.7199C30.6938 20.023 32.7672 17.835 35.4638 17.835H269.27C271.967 17.835 274.263 20.023 274.396 22.7199L281.437 163.173C281.57 165.87 279.497 168.058 276.8 168.058H276.807Z" fill="#E0E0E0"/>
<path d="M279.669 168.058H45.8622C43.1656 168.058 40.8696 165.87 40.7361 163.173L33.6956 22.7199C33.562 20.023 35.6354 17.835 38.332 17.835H272.138C274.835 17.835 277.131 20.023 277.265 22.7199L284.305 163.173C284.439 165.87 282.365 168.058 279.669 168.058Z" fill="#E6E6E6"/>
<path d="M47.2298 158.257L40.6854 27.6429C40.6027 25.951 41.9001 24.5835 43.5919 24.5835H267.566C269.257 24.5835 270.695 25.951 270.777 27.6429L277.322 158.257C277.405 159.948 276.107 161.316 274.415 161.316H50.4416C48.7499 161.316 47.3125 159.948 47.2298 158.257Z" fill="#F5F5F5"/>
<path d="M54.4804 31.2621C54.5567 32.7568 53.4056 33.9717 51.911 33.9717C50.4164 33.9717 49.1444 32.7568 49.068 31.2621C48.9917 29.7674 50.1429 28.5525 51.6375 28.5525C53.1321 28.5525 54.4041 29.7674 54.4804 31.2621Z" fill="white"/>
<path d="M66.7363 31.2621C66.8126 32.7568 65.6614 33.9717 64.1668 33.9717C62.6722 33.9717 61.4002 32.7568 61.3239 31.2621C61.2476 29.7674 62.3987 28.5525 63.8933 28.5525C65.3879 28.5525 66.6599 29.7674 66.7363 31.2621Z" fill="white"/>
<path d="M78.998 31.2621C79.0743 32.7568 77.9231 33.9717 76.4285 33.9717C74.9339 33.9717 73.6619 32.7568 73.5856 31.2621C73.5093 29.7674 74.6605 28.5525 76.1551 28.5525C77.6497 28.5525 78.9217 29.7674 78.998 31.2621Z" fill="white"/>
<g opacity="0.6">
<path d="M70.5205 161.316H102.798L132.308 24.5771H100.031L70.5205 161.316Z" fill="white"/>
<path d="M209.423 161.316H217.595L247.106 24.5771H238.933L209.423 161.316Z" fill="white"/>
<path d="M109.972 161.316H155.764L185.274 24.5771H139.482L109.972 161.316Z" fill="white"/>
</g>
<path d="M159 237C227.104 237 282.314 233.777 282.314 229.8C282.314 225.823 227.104 222.6 159 222.6C90.8951 222.6 35.6855 225.823 35.6855 229.8C35.6855 233.777 90.8951 237 159 237Z" fill="#F5F5F5"/>
<path d="M229.342 132.363C229.265 132.363 229.189 132.363 229.113 132.357C212.176 130.97 200.512 116.487 200.022 115.87C199.049 114.643 199.252 112.855 200.48 111.876C201.707 110.903 203.495 111.106 204.468 112.334C204.601 112.505 214.58 124.807 228.4 126.562C232.884 122.116 236.656 110.356 236.242 106.794C236.242 106.762 236.236 106.73 236.236 106.692C236.14 105.547 235.931 101.629 237.056 99.2883C237.737 97.8762 239.435 97.2783 240.847 97.9589C242.259 98.6395 242.857 100.338 242.176 101.75C241.896 102.335 241.763 104.447 241.896 106.196C242.526 112.048 237.457 126.817 231.084 131.759C230.582 132.147 229.971 132.357 229.342 132.357V132.363Z" fill="#263238"/>
<path d="M94.6497 116.952C89.6062 116.952 75.328 115.711 63.7655 102.78C62.8687 101.775 62.7988 100.274 63.6001 99.1929C68.1921 93.0168 76.2947 78.4321 77.5603 73.6808C77.0388 72.7776 76.0975 71.48 74.9273 70.9267C74.0242 70.5005 73.4073 69.6291 73.3055 68.6369L72.8476 63.9809C72.6949 62.4162 73.8334 61.0297 75.3979 60.877C76.9561 60.7243 78.349 61.8629 78.5016 63.4276L78.8196 66.6651C81.5926 68.6559 82.9791 71.7599 83.1508 72.1606C83.3416 72.6122 83.4115 73.1083 83.3607 73.5981C82.7755 78.6483 74.5902 93.2521 69.5531 100.637C81.3127 112.359 95.3683 111.291 95.9853 111.233C97.5371 111.106 98.9236 112.251 99.0635 113.809C99.2034 115.368 98.0586 116.748 96.5004 116.894C96.3669 116.907 95.7181 116.964 94.656 116.964L94.6497 116.952Z" fill="#263238"/>
<path d="M186.265 229.705H178.652C177.762 229.705 176.929 229.291 176.388 228.585C175.854 227.879 175.676 226.963 175.911 226.105C177.902 218.955 178.875 213.142 179.613 204.027C176.916 191.338 174.378 179.724 174.353 179.603C174.016 178.07 174.989 176.556 176.522 176.219C178.054 175.882 179.568 176.855 179.905 178.388C179.931 178.509 182.525 190.384 185.26 203.245C185.318 203.512 185.337 203.785 185.311 204.059C184.669 212.239 183.842 217.893 182.335 224.018H186.265C187.836 224.018 189.108 225.29 189.108 226.861C189.108 228.433 187.836 229.705 186.265 229.705Z" fill="#263238"/>
<path d="M127.404 229.705H123.105C122.284 229.705 121.502 229.348 120.961 228.725C120.421 228.108 120.179 227.281 120.293 226.467C121.025 221.251 124.771 211.755 128.752 202.208C130.171 189.614 131.334 178.801 131.347 178.693C131.513 177.135 132.912 175.996 134.476 176.174C136.034 176.34 137.167 177.739 136.995 179.304C136.982 179.412 135.793 190.473 134.355 203.251C134.324 203.518 134.26 203.779 134.152 204.027C131.328 210.788 128.116 218.752 126.647 224.025H127.41C128.981 224.025 130.253 225.297 130.253 226.868C130.253 228.439 128.981 229.711 127.41 229.711L127.404 229.705Z" fill="#263238"/>
<path d="M129.878 35.6384L96.7613 68.7577C95.095 105.464 95.2349 144.022 96.7613 184.004H206.255C204.086 132.414 203.883 82.7573 206.255 35.6448H129.871L129.878 35.6384Z" fill="white"/>
<path d="M206.261 184.564H96.7673C96.462 184.564 96.214 184.322 96.2013 184.017C94.6113 142.508 94.6113 103.715 96.2013 68.7259C96.2076 68.586 96.2649 68.4524 96.3667 68.3506L129.483 35.2313C129.591 35.1232 129.731 35.0659 129.884 35.0659H206.267C206.42 35.0659 206.573 35.1295 206.681 35.244C206.789 35.3585 206.846 35.5112 206.84 35.6638C204.557 81.0399 204.557 129.558 206.84 183.972C206.846 184.125 206.789 184.278 206.681 184.392C206.573 184.5 206.426 184.564 206.274 184.564H206.261ZM97.3143 183.425H205.67C203.418 129.45 203.418 81.2816 205.67 36.1981H130.119L97.327 68.993C95.7561 103.741 95.7561 142.235 97.3143 183.425Z" fill="#263238"/>
<path d="M129.013 147.851L130.208 147.749C130.285 148.226 130.437 148.627 130.66 148.932C130.883 149.238 131.213 149.492 131.658 149.676C132.104 149.867 132.6 149.963 133.147 149.963C133.63 149.963 134.056 149.893 134.419 149.746C134.781 149.6 135.048 149.403 135.22 149.155C135.392 148.9 135.468 148.627 135.455 148.334C135.443 148.035 135.341 147.768 135.156 147.546C134.972 147.323 134.673 147.132 134.266 146.98C134.005 146.878 133.427 146.725 132.536 146.509C131.646 146.299 131.016 146.095 130.654 145.911C130.183 145.669 129.827 145.37 129.585 145.014C129.343 144.658 129.21 144.257 129.191 143.818C129.165 143.335 129.286 142.883 129.541 142.457C129.795 142.037 130.183 141.713 130.698 141.497C131.213 141.281 131.798 141.166 132.447 141.166C133.159 141.166 133.789 141.281 134.349 141.509C134.902 141.738 135.335 142.076 135.653 142.521C135.964 142.966 136.149 143.469 136.193 144.035L134.978 144.124C134.883 143.519 134.641 143.061 134.247 142.75C133.853 142.438 133.287 142.285 132.549 142.285C131.811 142.285 131.226 142.425 130.889 142.705C130.552 142.985 130.393 143.329 130.412 143.723C130.431 144.066 130.565 144.353 130.825 144.575C131.08 144.798 131.728 145.027 132.771 145.262C133.814 145.498 134.533 145.701 134.927 145.873C135.5 146.134 135.926 146.458 136.212 146.852C136.498 147.247 136.651 147.705 136.676 148.22C136.702 148.729 136.575 149.212 136.308 149.664C136.034 150.115 135.633 150.465 135.099 150.72C134.565 150.968 133.954 151.095 133.268 151.095C132.396 151.095 131.665 150.968 131.067 150.713C130.469 150.459 129.986 150.077 129.63 149.568C129.273 149.059 129.07 148.487 129.019 147.845L129.013 147.851Z" fill="#263238"/>
<path d="M143.043 148.697L144.27 148.85C144.111 149.562 143.78 150.115 143.284 150.503C142.782 150.898 142.127 151.095 141.319 151.095C140.302 151.095 139.481 150.783 138.852 150.153C138.228 149.524 137.885 148.646 137.834 147.52C137.777 146.35 138.037 145.44 138.61 144.798C139.182 144.149 139.945 143.831 140.906 143.831C141.866 143.831 142.61 144.149 143.227 144.779C143.844 145.415 144.181 146.305 144.238 147.45C144.238 147.52 144.238 147.622 144.245 147.762H139.061C139.144 148.525 139.386 149.11 139.793 149.517C140.2 149.924 140.696 150.128 141.275 150.128C141.707 150.128 142.07 150.013 142.362 149.785C142.655 149.556 142.884 149.193 143.036 148.697H143.043ZM139.08 146.789H142.966C142.884 146.204 142.718 145.765 142.458 145.472C142.063 145.02 141.561 144.791 140.963 144.791C140.422 144.791 139.977 144.97 139.621 145.332C139.271 145.695 139.087 146.178 139.08 146.789Z" fill="#263238"/>
<path d="M145.835 150.936L145.504 143.984H146.566L146.617 145.04C146.865 144.543 147.1 144.219 147.317 144.066C147.539 143.907 147.787 143.831 148.061 143.831C148.455 143.831 148.868 143.958 149.288 144.213L148.932 145.307C148.633 145.135 148.347 145.052 148.054 145.052C147.794 145.052 147.571 145.129 147.374 145.288C147.177 145.44 147.043 145.657 146.967 145.93C146.859 146.35 146.814 146.808 146.833 147.304L147.005 150.942H145.828L145.835 150.936Z" fill="#263238"/>
<path d="M152.245 150.936L149.269 143.984H150.515L152.207 148.15C152.391 148.601 152.563 149.066 152.722 149.549C152.811 149.18 152.932 148.741 153.097 148.226L154.439 143.984H155.648L153.345 150.936H152.245Z" fill="#263238"/>
<path d="M156.634 142.692L156.57 141.338H157.747L157.811 142.692H156.634ZM157.028 150.936L156.698 143.984H157.874L158.205 150.936H157.028Z" fill="#263238"/>
<path d="M164.412 148.392L165.576 148.544C165.487 149.339 165.195 149.969 164.692 150.421C164.19 150.872 163.56 151.101 162.803 151.101C161.849 151.101 161.073 150.789 160.463 150.166C159.852 149.543 159.521 148.652 159.464 147.488C159.426 146.738 159.521 146.083 159.744 145.517C159.967 144.951 160.323 144.531 160.819 144.251C161.315 143.971 161.862 143.825 162.46 143.825C163.217 143.825 163.84 144.016 164.342 144.397C164.838 144.779 165.176 145.319 165.347 146.025L164.209 146.204C164.075 145.739 163.865 145.383 163.579 145.148C163.293 144.912 162.95 144.792 162.555 144.792C161.964 144.792 161.487 145.001 161.137 145.428C160.787 145.854 160.634 146.528 160.679 147.45C160.724 148.385 160.933 149.066 161.315 149.486C161.69 149.912 162.174 150.122 162.746 150.122C163.21 150.122 163.586 149.982 163.884 149.695C164.183 149.409 164.355 148.977 164.412 148.385V148.392Z" fill="#263238"/>
<path d="M171.357 148.697L172.585 148.85C172.426 149.562 172.095 150.115 171.599 150.503C171.096 150.898 170.441 151.095 169.634 151.095C168.616 151.095 167.796 150.783 167.166 150.153C166.543 149.524 166.199 148.646 166.148 147.52C166.091 146.35 166.352 145.44 166.918 144.798C167.49 144.149 168.254 143.831 169.214 143.831C170.174 143.831 170.918 144.149 171.542 144.779C172.159 145.415 172.496 146.305 172.553 147.45C172.553 147.52 172.553 147.622 172.559 147.762H167.376C167.459 148.525 167.7 149.11 168.107 149.517C168.514 149.924 169.01 150.128 169.589 150.128C170.022 150.128 170.384 150.013 170.677 149.785C170.969 149.556 171.198 149.193 171.351 148.697H171.357ZM167.395 146.789H171.281C171.198 146.204 171.033 145.765 170.772 145.472C170.378 145.02 169.875 144.791 169.277 144.791C168.737 144.791 168.292 144.97 167.936 145.332C167.586 145.695 167.401 146.178 167.395 146.789Z" fill="#263238"/>
<path d="M123.078 164.35L123.028 163.326C122.525 164.115 121.806 164.503 120.878 164.503C120.464 164.503 120.083 164.427 119.72 164.268C119.358 164.109 119.084 163.911 118.9 163.676C118.715 163.441 118.582 163.148 118.493 162.805C118.436 162.576 118.391 162.207 118.366 161.704L118.162 157.392H119.339L119.523 161.246C119.555 161.863 119.593 162.277 119.657 162.493C119.746 162.805 119.917 163.046 120.166 163.224C120.414 163.403 120.712 163.492 121.069 163.492C121.425 163.492 121.749 163.403 122.048 163.218C122.347 163.034 122.557 162.792 122.671 162.48C122.786 162.169 122.83 161.717 122.799 161.119L122.62 157.392H123.797L124.128 164.35H123.072H123.078Z" fill="#263238"/>
<path d="M125.978 164.35L125.647 157.392H126.71L126.754 158.384C127.231 157.621 127.95 157.239 128.91 157.239C129.33 157.239 129.718 157.315 130.074 157.462C130.43 157.614 130.704 157.811 130.894 158.053C131.079 158.295 131.219 158.587 131.302 158.925C131.352 159.141 131.397 159.522 131.422 160.069L131.626 164.344H130.449L130.246 160.114C130.22 159.637 130.157 159.274 130.055 159.039C129.953 158.804 129.781 158.613 129.54 158.467C129.298 158.327 129.025 158.257 128.707 158.257C128.204 158.257 127.778 158.416 127.428 158.734C127.078 159.052 126.926 159.656 126.97 160.546L127.155 164.344H125.978V164.35Z" fill="#263238"/>
<path d="M137.936 163.491C137.516 163.86 137.109 164.127 136.715 164.28C136.32 164.433 135.888 164.509 135.424 164.509C134.66 164.509 134.063 164.325 133.636 163.949C133.21 163.574 132.981 163.097 132.95 162.518C132.931 162.181 132.994 161.87 133.14 161.583C133.28 161.303 133.471 161.074 133.719 160.903C133.961 160.731 134.241 160.604 134.546 160.515C134.775 160.451 135.118 160.394 135.583 160.337C136.53 160.222 137.224 160.089 137.662 159.93C137.662 159.771 137.662 159.662 137.656 159.624C137.631 159.147 137.503 158.804 137.274 158.607C136.963 158.339 136.505 158.206 135.913 158.206C135.36 158.206 134.953 158.301 134.699 158.498C134.444 158.696 134.266 159.039 134.164 159.529L133.007 159.37C133.09 158.874 133.242 158.479 133.465 158.174C133.687 157.869 134.024 157.64 134.47 157.474C134.915 157.309 135.436 157.226 136.034 157.226C136.632 157.226 137.115 157.296 137.491 157.436C137.866 157.576 138.152 157.754 138.337 157.964C138.521 158.174 138.655 158.441 138.744 158.766C138.794 158.969 138.826 159.332 138.852 159.853L138.928 161.424C138.979 162.518 139.036 163.212 139.1 163.504C139.163 163.797 139.278 164.07 139.437 164.337H138.203C138.069 164.096 137.974 163.809 137.929 163.479L137.936 163.491ZM137.713 160.858C137.293 161.036 136.657 161.183 135.812 161.303C135.328 161.373 134.991 161.45 134.794 161.539C134.597 161.628 134.451 161.755 134.349 161.92C134.247 162.086 134.203 162.277 134.209 162.48C134.222 162.792 134.355 163.059 134.603 163.269C134.851 163.479 135.207 163.58 135.665 163.58C136.123 163.58 136.518 163.479 136.861 163.282C137.204 163.084 137.452 162.811 137.599 162.467C137.713 162.2 137.758 161.806 137.732 161.291L137.713 160.858Z" fill="#263238"/>
<path d="M142.826 164.35L139.85 157.392H141.096L142.788 161.558C142.972 162.01 143.144 162.474 143.303 162.957C143.392 162.588 143.513 162.15 143.678 161.634L145.02 157.392H146.229L143.926 164.35H142.826Z" fill="#263238"/>
<path d="M152.099 163.491C151.679 163.86 151.272 164.127 150.878 164.28C150.483 164.433 150.051 164.509 149.587 164.509C148.824 164.509 148.226 164.325 147.8 163.949C147.373 163.574 147.144 163.097 147.113 162.518C147.094 162.181 147.157 161.87 147.303 161.583C147.443 161.303 147.634 161.074 147.882 160.903C148.124 160.731 148.404 160.604 148.709 160.515C148.938 160.451 149.281 160.394 149.746 160.337C150.693 160.222 151.387 160.089 151.825 159.93C151.825 159.771 151.825 159.662 151.819 159.624C151.794 159.147 151.666 158.804 151.437 158.607C151.126 158.339 150.668 158.206 150.076 158.206C149.523 158.206 149.116 158.301 148.862 158.498C148.607 158.696 148.429 159.039 148.327 159.529L147.17 159.37C147.253 158.874 147.405 158.479 147.628 158.174C147.85 157.869 148.188 157.64 148.633 157.474C149.078 157.309 149.599 157.226 150.197 157.226C150.795 157.226 151.278 157.296 151.654 157.436C152.029 157.576 152.315 157.754 152.5 157.964C152.684 158.174 152.818 158.441 152.907 158.766C152.958 158.969 152.989 159.332 153.015 159.853L153.091 161.424C153.142 162.518 153.199 163.212 153.263 163.504C153.326 163.797 153.441 164.07 153.6 164.337H152.366C152.232 164.096 152.137 163.809 152.086 163.479L152.099 163.491ZM151.876 160.858C151.457 161.036 150.821 161.183 149.975 161.303C149.491 161.373 149.154 161.45 148.957 161.539C148.76 161.628 148.614 161.755 148.512 161.92C148.41 162.086 148.366 162.277 148.372 162.48C148.385 162.792 148.518 163.059 148.766 163.269C149.014 163.479 149.37 163.58 149.828 163.58C150.286 163.58 150.681 163.479 151.024 163.282C151.368 163.084 151.616 162.811 151.762 162.467C151.876 162.2 151.921 161.806 151.895 161.291L151.876 160.858Z" fill="#263238"/>
<path d="M154.668 156.107L154.604 154.752H155.781L155.845 156.107H154.668ZM155.062 164.35L154.732 157.392H155.908L156.239 164.35H155.062Z" fill="#263238"/>
<path d="M158.014 164.35L157.556 154.752H158.732L159.19 164.35H158.014Z" fill="#263238"/>
<path d="M165.512 163.491C165.092 163.86 164.685 164.127 164.291 164.28C163.897 164.433 163.464 164.509 163 164.509C162.237 164.509 161.639 164.325 161.213 163.949C160.787 163.574 160.558 163.097 160.526 162.518C160.507 162.181 160.57 161.87 160.717 161.583C160.856 161.303 161.047 161.074 161.295 160.903C161.537 160.731 161.817 160.604 162.122 160.515C162.351 160.451 162.695 160.394 163.159 160.337C164.106 160.222 164.8 160.089 165.239 159.93C165.239 159.771 165.239 159.662 165.232 159.624C165.207 159.147 165.08 158.804 164.851 158.607C164.539 158.339 164.081 158.206 163.49 158.206C162.936 158.206 162.529 158.301 162.275 158.498C162.02 158.696 161.842 159.039 161.741 159.529L160.583 159.37C160.666 158.874 160.818 158.479 161.041 158.174C161.264 157.869 161.601 157.64 162.046 157.474C162.491 157.309 163.013 157.226 163.61 157.226C164.208 157.226 164.692 157.296 165.067 157.436C165.442 157.576 165.728 157.754 165.913 157.964C166.097 158.174 166.231 158.441 166.32 158.766C166.371 158.969 166.402 159.332 166.428 159.853L166.504 161.424C166.555 162.518 166.612 163.212 166.682 163.504C166.746 163.797 166.86 164.07 167.019 164.337H165.785C165.652 164.096 165.557 163.809 165.506 163.479L165.512 163.491ZM165.289 160.858C164.87 161.036 164.234 161.183 163.388 161.303C162.904 161.373 162.567 161.45 162.37 161.539C162.173 161.628 162.027 161.755 161.925 161.92C161.823 162.086 161.779 162.277 161.791 162.48C161.804 162.792 161.938 163.059 162.186 163.269C162.434 163.479 162.79 163.58 163.248 163.58C163.706 163.58 164.1 163.479 164.444 163.282C164.787 163.084 165.035 162.811 165.181 162.467C165.296 162.2 165.34 161.806 165.315 161.291L165.296 160.858H165.289Z" fill="#263238"/>
<path d="M169.564 164.35H168.47L168.012 154.752H169.188L169.354 158.174C169.824 157.551 170.441 157.239 171.217 157.239C171.643 157.239 172.057 157.328 172.445 157.5C172.833 157.672 173.163 157.913 173.424 158.225C173.685 158.537 173.895 158.912 174.06 159.357C174.219 159.796 174.314 160.267 174.34 160.769C174.397 161.959 174.149 162.881 173.589 163.536C173.03 164.185 172.343 164.509 171.516 164.509C170.689 164.509 170.034 164.166 169.532 163.479L169.576 164.35H169.564ZM169.379 160.82C169.417 161.653 169.564 162.258 169.805 162.627C170.206 163.231 170.721 163.536 171.357 163.536C171.872 163.536 172.305 163.313 172.661 162.862C173.017 162.417 173.17 161.749 173.132 160.865C173.087 159.955 172.877 159.287 172.496 158.855C172.114 158.422 171.669 158.206 171.16 158.206C170.651 158.206 170.212 158.429 169.856 158.88C169.5 159.332 169.347 159.974 169.385 160.82H169.379Z" fill="#263238"/>
<path d="M175.911 164.35L175.453 154.752H176.63L177.088 164.35H175.911Z" fill="#263238"/>
<path d="M183.568 162.111L184.796 162.264C184.637 162.976 184.306 163.53 183.81 163.918C183.307 164.312 182.652 164.509 181.845 164.509C180.827 164.509 180.007 164.197 179.377 163.568C178.754 162.938 178.41 162.06 178.359 160.934C178.302 159.764 178.563 158.855 179.135 158.212C179.708 157.563 180.471 157.245 181.431 157.245C182.392 157.245 183.136 157.563 183.753 158.193C184.37 158.829 184.707 159.72 184.764 160.865C184.764 160.934 184.764 161.043 184.77 161.183H179.587C179.669 161.946 179.911 162.531 180.318 162.938C180.725 163.345 181.221 163.549 181.8 163.549C182.233 163.549 182.595 163.434 182.888 163.205C183.18 162.976 183.409 162.614 183.562 162.118L183.568 162.111ZM179.606 160.203H183.492C183.409 159.618 183.244 159.179 182.983 158.886C182.589 158.435 182.086 158.206 181.488 158.206C180.948 158.206 180.503 158.39 180.146 158.746C179.79 159.103 179.612 159.592 179.606 160.203Z" fill="#263238"/>
<path d="M186.628 168.243H174.684C174.449 168.243 174.258 168.052 174.258 167.817C174.258 167.581 174.449 167.39 174.684 167.39H186.628C186.863 167.39 187.054 167.581 187.054 167.817C187.054 168.052 186.863 168.243 186.628 168.243Z" fill="#4781B4"/>
<path d="M169.736 168.243H116.395C116.16 168.243 115.969 168.052 115.969 167.817C115.969 167.581 116.16 167.39 116.395 167.39H169.736C169.972 167.39 170.162 167.581 170.162 167.817C170.162 168.052 169.972 168.243 169.736 168.243Z" fill="#4781B4"/>
<path d="M136.282 104.459C136.155 101.692 134.584 99.498 132.765 99.5617C130.946 99.6253 129.579 101.928 129.7 104.695C129.827 107.461 131.398 109.656 133.217 109.592C135.036 109.529 136.403 107.226 136.282 104.459Z" fill="#4781B4"/>
<path d="M174.677 103.594C174.55 100.827 172.979 98.6331 171.16 98.6967C169.341 98.7603 167.974 101.063 168.094 103.83C168.222 106.596 169.792 108.791 171.611 108.727C173.43 108.664 174.798 106.361 174.677 103.594Z" fill="#4781B4"/>
<path d="M145.867 115.813C155.935 112.219 163.713 116.442 164.076 116.64C164.47 116.862 164.61 117.352 164.387 117.746C164.165 118.134 163.669 118.274 163.274 118.058C163.185 118.007 154.122 113.122 143.297 118.7C142.897 118.904 142.401 118.751 142.191 118.357C141.981 117.956 142.134 117.467 142.534 117.263C143.666 116.678 144.779 116.201 145.861 115.813H145.867Z" fill="#4781B4"/>
<path d="M130.787 78.4829C131.061 78.4893 131.334 78.5656 131.588 78.7119C132.371 79.1698 132.631 80.1685 132.174 80.9444C127.601 88.6725 120.064 89.0541 119.746 89.0668C118.843 89.105 118.08 88.4054 118.035 87.5085C117.991 86.6117 118.684 85.8611 119.581 85.823C119.829 85.8102 125.699 85.4477 129.35 79.2843C129.661 78.7628 130.221 78.4766 130.787 78.4893V78.4829Z" fill="#4781B4"/>
<path d="M169.208 77.5479C169.729 77.4461 170.289 77.5988 170.69 77.9995C175.797 83.107 181.591 82.0639 181.832 82.0194C182.716 81.8476 183.581 82.4201 183.759 83.2978C183.937 84.1756 183.378 85.0279 182.5 85.206C182.182 85.2633 174.773 86.6817 168.374 80.2829C167.738 79.6469 167.738 78.6165 168.374 77.9868C168.61 77.7515 168.902 77.6052 169.208 77.5479Z" fill="#4781B4"/>
<path opacity="0.2" d="M204.614 95.3511L199.971 95.79C198.305 95.949 196.785 94.8422 196.422 93.2076L189.98 64.3435C189.592 62.6007 190.647 60.8642 192.377 60.4063L204.837 57.137L204.614 95.3511Z" fill="black"/>
<path opacity="0.2" d="M132.937 71.7088C129.7 62.8676 126.462 48.7282 129.884 35.6382L96.7676 68.7575C106.123 71.8869 121.044 73.2544 132.937 71.7152V71.7088Z" fill="black"/>
<path d="M129.877 68.7512C126.246 58.0273 127.728 43.4489 129.877 35.6318L96.7607 68.7512C106.784 70.5766 117.984 70.2904 129.877 68.7512Z" fill="white"/>
<path d="M111.911 70.5831C106.384 70.5831 101.328 70.1569 96.6657 69.311C96.4559 69.2728 96.2905 69.1265 96.2269 68.923C96.1633 68.7194 96.2205 68.5032 96.3668 68.3505L129.483 35.2312C129.668 35.0468 129.948 35.015 130.17 35.1422C130.393 35.2694 130.501 35.5365 130.431 35.7846C128.428 43.061 126.774 57.7984 130.418 68.5668C130.475 68.7258 130.45 68.9039 130.361 69.0502C130.272 69.1965 130.119 69.2919 129.954 69.311C123.416 70.1569 117.431 70.5767 111.911 70.5767V70.5831ZM97.9441 68.3823C106.74 69.8389 116.96 69.8071 129.127 68.2806C126.132 58.7843 126.812 46.2095 128.828 37.4956L97.9441 68.3823Z" fill="#263238"/>
<path d="M243.652 117.136C243.233 117.136 242.845 116.856 242.737 116.424L231.072 71.9761C230.939 71.4673 231.244 70.9521 231.753 70.8185C232.262 70.6849 232.777 70.9902 232.91 71.4991L244.575 115.946C244.708 116.455 244.403 116.971 243.894 117.104C243.811 117.123 243.735 117.136 243.652 117.136Z" fill="#263238"/>
<path d="M264.983 52.0515L264.368 52.2129L265.257 55.6028L265.873 55.4414L264.983 52.0515Z" fill="#4781B4"/>
<path d="M263.374 48.4293L260.926 39.092C260.36 36.9294 258.401 35.4156 256.162 35.4156C255.742 35.4156 255.316 35.4729 254.909 35.5746L248.505 37.2538L248.346 36.6368L254.75 34.9576C255.208 34.8368 255.685 34.7732 256.162 34.7732C258.687 34.7732 260.894 36.4778 261.536 38.9203L263.985 48.2575L263.368 48.4166L263.374 48.4293Z" fill="#4781B4"/>
<path d="M255.322 37.1355L194.684 53.0451C192.903 53.5122 191.839 55.3342 192.306 57.1147L199.98 86.3691C200.447 88.1496 202.269 89.2143 204.049 88.7472L264.688 72.8376C266.468 72.3705 267.532 70.5485 267.065 68.768L259.391 39.5136C258.924 37.7332 257.102 36.6684 255.322 37.1355Z" fill="#4781B4"/>
<path d="M252.296 71.214L214.038 81.2517C212.258 81.7188 211.193 83.5408 211.66 85.3212L214.058 94.4636C214.525 96.2441 216.347 97.3088 218.128 96.8417L256.386 86.804C258.166 86.3369 259.231 84.5149 258.764 82.7344L256.365 73.592C255.898 71.8116 254.077 70.7469 252.296 71.214Z" fill="#4781B4"/>
<path d="M217.608 84.5889L222.843 83.2278L223.192 84.5762L219.917 85.4285L220.178 86.4335L223.218 85.6448L223.555 86.936L220.515 87.7247L220.839 88.9713L224.21 88.0936L224.585 89.5247L219.256 90.9113L217.615 84.5889H217.608Z" fill="white"/>
<path d="M225.66 89.2384L224.02 82.916L227.276 82.0701C227.88 81.9111 228.351 81.8475 228.7 81.8666C229.044 81.8856 229.356 82.0129 229.623 82.2418C229.89 82.4708 230.074 82.7888 230.182 83.1895C230.271 83.5394 230.278 83.8638 230.195 84.1564C230.112 84.4489 229.96 84.7097 229.737 84.9387C229.597 85.085 229.387 85.2249 229.114 85.3649C229.368 85.3839 229.559 85.4157 229.68 85.4666C229.763 85.4984 229.896 85.5811 230.081 85.7147C230.259 85.8483 230.386 85.9564 230.456 86.0391L231.874 87.6228L229.667 88.1953L228.122 86.5352C227.925 86.3189 227.766 86.1854 227.638 86.1408C227.473 86.0772 227.301 86.0709 227.123 86.1218L226.951 86.1663L227.619 88.7296L225.66 89.2384ZM226.646 84.9705L227.473 84.7542C227.562 84.7288 227.727 84.6588 227.969 84.5316C228.09 84.468 228.179 84.379 228.236 84.2518C228.293 84.1246 228.3 83.991 228.262 83.851C228.211 83.6475 228.103 83.5076 227.944 83.4313C227.785 83.3549 227.53 83.3677 227.174 83.4567L226.315 83.6793L226.653 84.9641L226.646 84.9705Z" fill="white"/>
<path d="M232.523 87.4574L230.882 81.1414L234.138 80.2954C234.742 80.1364 235.219 80.0728 235.563 80.0919C235.906 80.111 236.218 80.2382 236.485 80.4672C236.752 80.6962 236.937 81.0142 237.045 81.4149C237.134 81.7647 237.14 82.0891 237.057 82.3817C236.975 82.6743 236.822 82.9351 236.599 83.1577C236.46 83.304 236.25 83.4439 235.976 83.5838C236.231 83.6029 236.421 83.6347 236.542 83.6856C236.625 83.7174 236.758 83.8001 236.943 83.9337C237.121 84.0672 237.248 84.1754 237.318 84.2581L238.736 85.8418L236.53 86.4143L234.984 84.7542C234.787 84.5379 234.628 84.4044 234.501 84.3598C234.335 84.2962 234.164 84.2899 233.986 84.3344L233.814 84.3789L234.482 86.9422L232.523 87.4511V87.4574ZM233.509 83.1895L234.335 82.9732C234.424 82.9478 234.59 82.8778 234.831 82.7506C234.952 82.6934 235.041 82.598 235.099 82.4708C235.156 82.3435 235.162 82.21 235.124 82.07C235.073 81.8665 234.965 81.7266 234.806 81.6502C234.647 81.5739 234.393 81.5866 234.036 81.6757L233.178 81.8983L233.515 83.1831L233.509 83.1895Z" fill="white"/>
<path d="M238.152 82.6234C237.884 81.593 237.961 80.7153 238.387 79.9902C238.813 79.2651 239.538 78.769 240.562 78.5018C241.611 78.2283 242.495 78.2983 243.214 78.7181C243.933 79.1315 244.422 79.8502 244.683 80.8679C244.874 81.6058 244.906 82.2482 244.785 82.7824C244.658 83.3231 244.397 83.7811 243.996 84.1691C243.596 84.557 243.042 84.8369 242.343 85.0214C241.63 85.2058 241.014 85.244 240.486 85.1422C239.958 85.0404 239.487 84.7797 239.067 84.3599C238.648 83.9464 238.342 83.3676 238.152 82.6298V82.6234ZM240.104 82.1273C240.269 82.7634 240.505 83.1959 240.816 83.4121C241.128 83.6284 241.484 83.6856 241.891 83.5775C242.311 83.4694 242.597 83.2468 242.756 82.916C242.915 82.5853 242.902 82.0637 242.718 81.3577C242.565 80.7598 242.33 80.3591 242.018 80.1492C241.707 79.9393 241.344 79.882 240.937 79.9902C240.543 80.0919 240.263 80.3146 240.098 80.658C239.932 80.9951 239.932 81.4913 240.098 82.1337L240.104 82.1273Z" fill="white"/>
<path d="M246.597 83.7939L244.956 77.4715L248.212 76.6255C248.817 76.4665 249.287 76.4029 249.637 76.422C249.98 76.4411 250.292 76.5683 250.559 76.7973C250.826 77.0262 251.011 77.3443 251.119 77.745C251.208 78.0948 251.214 78.4192 251.132 78.7118C251.049 79.0044 250.896 79.2651 250.674 79.4941C250.534 79.6404 250.324 79.7803 250.05 79.9203C250.305 79.9394 250.496 79.9712 250.616 80.022C250.699 80.0538 250.833 80.1365 251.017 80.2701C251.195 80.4037 251.322 80.5118 251.392 80.5945L252.811 82.1783L250.604 82.7507L249.058 81.0906C248.861 80.8744 248.702 80.7408 248.581 80.6963C248.416 80.6327 248.244 80.6263 248.066 80.6708L247.894 80.7153L248.562 83.2786L246.603 83.7875L246.597 83.7939ZM247.583 79.5259L248.403 79.3097C248.492 79.2842 248.658 79.2143 248.899 79.087C249.02 79.0234 249.109 78.9344 249.166 78.8072C249.217 78.68 249.23 78.5464 249.192 78.4065C249.141 78.2029 249.033 78.063 248.874 77.9867C248.715 77.9103 248.46 77.9231 248.104 78.0121L247.246 78.2347L247.583 79.5196V79.5259Z" fill="white"/>
<path d="M202.72 59.3312L215.885 55.8774L217.049 60.3044L208.132 62.6451L208.444 65.7681C208.984 65.3165 209.538 64.9349 210.104 64.6359C210.67 64.3306 211.248 64.1016 211.84 63.949C213.837 63.4274 215.618 63.6055 217.176 64.4832C218.734 65.361 219.758 66.7222 220.235 68.554C220.572 69.8452 220.579 71.1682 220.248 72.523C219.917 73.8778 219.249 75.0227 218.238 75.9577C217.227 76.8927 215.802 77.5987 213.971 78.0821C212.654 78.4256 211.497 78.5973 210.492 78.5973C209.487 78.5973 208.59 78.4319 207.801 78.1075C207.013 77.7831 206.332 77.3633 205.76 76.8481C205.187 76.3266 204.64 75.6396 204.125 74.7746L209.576 72.6883C209.945 73.5534 210.447 74.1513 211.064 74.4884C211.687 74.8255 212.342 74.9018 213.029 74.7237C213.799 74.5202 214.359 74.0622 214.715 73.3435C215.071 72.6247 215.09 71.6834 214.785 70.5258C214.473 69.3363 213.99 68.5349 213.335 68.1088C212.679 67.6826 211.935 67.5872 211.089 67.8098C210.555 67.9497 210.072 68.2169 209.639 68.6112C209.315 68.8975 208.997 69.3491 208.685 69.966L203.782 70.5258L202.726 59.3376L202.72 59.3312Z" fill="white"/>
<path d="M221.666 64.9412C220.667 61.144 220.655 58.3136 221.628 56.4372C222.594 54.5608 224.477 53.2569 227.275 52.5255C228.617 52.1756 229.762 52.0484 230.716 52.1566C231.664 52.2647 232.484 52.5064 233.165 52.8944C233.852 53.2824 234.424 53.7276 234.888 54.2301C235.353 54.7326 235.785 55.3495 236.179 56.081C236.943 57.474 237.534 58.9751 237.96 60.5906C238.908 64.2098 238.99 67.0211 238.208 69.0247C237.426 71.0283 235.531 72.4212 232.541 73.2036C230.862 73.6425 229.438 73.7315 228.261 73.4707C227.084 73.2036 226.029 72.6439 225.1 71.7852C224.426 71.1746 223.79 70.2714 223.186 69.0629C222.582 67.8607 222.079 66.4868 221.672 64.9412H221.666ZM227.167 63.5101C227.835 66.0543 228.516 67.7272 229.209 68.5413C229.902 69.3555 230.678 69.648 231.53 69.4254C232.09 69.2791 232.529 68.9547 232.84 68.4523C233.152 67.9498 233.292 67.2438 233.26 66.3406C233.228 65.4374 232.98 64.0826 232.503 62.2762C231.81 59.6238 231.117 57.9065 230.43 57.1114C229.743 56.3163 228.948 56.0365 228.051 56.2718C227.135 56.5135 226.595 57.1496 226.429 58.1863C226.264 59.2231 226.512 60.9977 227.174 63.5165L227.167 63.5101Z" fill="white"/>
<path d="M241.238 58.7955C240.24 54.9982 240.227 52.1678 241.2 50.2914C242.167 48.4151 244.049 47.1112 246.848 46.3797C248.19 46.0299 249.334 45.9027 250.288 46.0108C251.236 46.1189 252.056 46.3606 252.737 46.7486C253.424 47.1366 253.996 47.5819 254.46 48.0843C254.925 48.5868 255.357 49.2038 255.752 49.9353C256.515 51.3282 257.106 52.8293 257.532 54.4449C258.48 58.064 258.563 60.8754 257.78 62.879C256.998 64.8825 255.103 66.2755 252.114 67.0578C250.435 67.4967 249.01 67.5858 247.833 67.325C246.657 67.0578 245.601 66.4981 244.672 65.6394C243.998 65.0288 243.362 64.1256 242.758 62.9171C242.154 61.715 241.651 60.3411 241.244 58.7955H241.238ZM246.739 57.3644C247.407 59.9086 248.088 61.5814 248.781 62.3956C249.474 63.2097 250.25 63.5023 251.102 63.2797C251.662 63.1334 252.101 62.809 252.413 62.3065C252.724 61.804 252.864 61.098 252.832 60.1948C252.801 59.2916 252.552 57.9368 252.075 56.1304C251.382 53.4781 250.689 51.7607 250.002 50.9657C249.315 50.1706 248.52 49.8907 247.623 50.1261C246.708 50.3678 246.167 51.0038 246.002 52.0406C245.836 53.0774 246.084 54.852 246.746 57.3707L246.739 57.3644Z" fill="white"/>
</g>
<defs>
<clipPath id="clip0_418_5152">
<rect width="318" height="237" fill="white"/>
</clipPath>
</defs>
</svg>
